<?xml version="1.0" encoding="UTF-8"?>
<svg width="24px" height="24px" viewBox="0 0 24 24" version="1.1" xmlns="http://www.w3.org/2000/svg" xmlns:xlink="http://www.w3.org/1999/xlink">
    <title>avator_small</title>
    <defs>
        <circle id="path-1" cx="12" cy="12" r="12"></circle>
        <linearGradient x1="50%" y1="0%" x2="50%" y2="100%" id="linearGradient-3">
            <stop stop-color="#FFFFFF" offset="0%"></stop>
            <stop stop-color="#FFFFFF" stop-opacity="0.8" offset="100%"></stop>
        </linearGradient>
    </defs>
    <g id="页面-1" stroke="none" stroke-width="1" fill="none" fill-rule="evenodd">
        <g id="帮助中心入口" transform="translate(-1661.000000, -12.000000)">
            <g id="avator_small" transform="translate(1661.000000, 12.000000)">
                <mask id="mask-2" fill="white">
                    <use xlink:href="#path-1"></use>
                </mask>
                <use id="蒙版" fill="#4B71EE" xlink:href="#path-1"></use>
                <path d="M11.9698986,4 C15.7819615,4 16.2834487,6.4744982 16.3245251,9.62317682 L16.326,9.828 L16.3798963,9.84513573 C16.8984326,10.0399279 17.1769815,10.734588 17.0077996,11.4626766 C16.8610696,12.0941273 16.42275,12.5563027 15.948893,12.6347485 C15.6034736,13.7236758 15.0389145,14.6446051 14.3341095,15.2867245 C14.0310889,16.2469201 14.4442065,16.993371 15.2488846,17.8361811 C16.1277805,18.7567261 18.7327179,18.7078525 20.2351644,19.6974315 C21.1967301,20.330762 21.6502079,21.9236043 21.5955978,24.4759583 L21.5861253,24.8 L13.6050061,24.7992158 C13.7916501,24.5939857 13.8643984,24.2987983 13.7761112,24.0194976 L13.7761112,24.0194976 L12.7573573,20.7966257 L13.287244,20.2127132 L13.287244,20.2127132 C13.3480636,20.1406606 13.3394121,20.0397243 13.2718204,19.9828048 L13.2718204,19.9828048 L12.1030619,18.9985835 C12.043506,18.948431 11.956494,18.948431 11.8969381,18.9985835 L11.8969381,18.9985835 L10.7290585,19.9820647 L10.7290585,19.9820647 C10.6587566,20.0465411 10.6545458,20.1477599 10.7143785,20.212787 L10.7143785,20.212787 L11.2515803,20.7966257 L10.225748,24.0185255 C10.1366017,24.2985134 10.2094689,24.5947654 10.3968968,24.8004352 L2.41387475,24.8 C2.31288435,22.0580069 2.76320464,20.3571508 3.76483561,19.6974315 C5.26728208,18.7078525 7.87221948,18.7567261 8.75111545,17.8361811 C9.5851223,16.9626524 9.98887981,16.3008889 9.6230542,15.3009775 C8.90767557,14.6573969 8.33572534,13.7277691 7.98734564,12.6270636 C7.52732938,12.53339 7.10684377,12.0785454 6.96373451,11.4626766 C6.79455256,10.734588 7.07310148,10.0399279 7.5916378,9.84513573 L7.646,9.828 L7.61315419,9.83847244 C7.63530036,6.5880356 8.07136202,4 11.9698986,4 Z" id="形状结合" fill="url(#linearGradient-3)" opacity="0.800000012" mask="url(#mask-2)"></path>
            </g>
        </g>
    </g>
</svg>