<?xml version="1.0" encoding="UTF-8"?>
<svg width="480px" height="270px" viewBox="0 0 480 270" version="1.1" xmlns="http://www.w3.org/2000/svg" xmlns:xlink="http://www.w3.org/1999/xlink">
    <title>编组 6</title>
    <g id="页面-1" stroke="none" stroke-width="1" fill="none" fill-rule="evenodd">
        <g id="编组-6">
            <g id="编组-5" fill="#DDDDDD">
                <rect id="矩形" x="0" y="0" width="480" height="270"></rect>
            </g>
            <g id="编组-8" transform="translate(180.000000, 75.000000)">
                <circle id="椭圆形" fill="#EEEEEE" cx="60" cy="60" r="60"></circle>
                <path d="M75.3585528,43.6413171 L94.3048614,76.2710707 C96.2064965,79.546109 95.0931332,83.7426319 91.818095,85.6442671 C90.7722032,86.2515591 89.5842985,86.5714286 88.37488,86.5714286 L50.4822629,86.5714286 C46.6951674,86.5714286 43.62512,83.5013811 43.62512,79.7142857 C43.62512,78.5048672 43.9449895,77.3169625 44.5522815,76.2710707 L63.4985901,43.6413171 C65.4002252,40.3662788 69.5967481,39.2529156 72.8717864,41.1545507 C73.9027927,41.7531995 74.759904,42.6103108 75.3585528,43.6413171 Z" id="三角形" fill="#DDDDDD" transform="translate(69.428571, 60.000000) rotate(-270.000000) translate(-69.428571, -60.000000) "></path>
            </g>
        </g>
    </g>
</svg>