<?xml version="1.0" encoding="UTF-8"?>
<svg width="16px" height="16px" viewBox="0 0 16 16" version="1.1" xmlns="http://www.w3.org/2000/svg" xmlns:xlink="http://www.w3.org/1999/xlink">
    <title>icon_shuaxin_rest</title>
    <g id="页面-1" stroke="none" stroke-width="1" fill="none" fill-rule="evenodd">
        <g id="翻转课堂" transform="translate(-1884.000000, -70.000000)" fill="#19203D">
            <g id="top" transform="translate(0.000000, 48.000000)">
                <g id="编组-13" transform="translate(1884.000000, 22.000000)">
                    <path d="M15.9998724,8.12908065 C15.9666383,10.1915602 15.1457941,12.1686474 13.6575112,13.6568542 C10.668065,16.6461475 5.90141692,16.7752236 2.75849344,14.0440827 C2.62259503,14.4341709 2.25128396,14.7140452 1.8146014,14.7140452 C1.28201386,14.7140452 0.846664928,14.2977386 0.816247897,13.7728028 L0.814550245,13.7140452 L0.814550245,11.7140452 C0.814550245,11.1814849 1.2308782,10.7461582 1.7558408,10.7157428 L1.8146014,10.7140452 L3.81470371,10.7140452 C4.36701671,10.7140452 4.81475486,11.1617605 4.81475486,11.7140452 C4.81475486,12.1317618 4.55862423,12.489659 4.1948392,12.6392681 C6.55164053,14.5773434 10.0406201,14.4451332 12.2432252,12.2426407 C13.360549,11.1253741 13.975046,9.64529533 13.9998962,8.09698658 C14.0087592,7.54477294 14.4636246,7.10429984 15.0158664,7.11316237 C15.5681083,7.12202491 16.008604,7.57686701 15.9998724,8.12908065 Z M15.1861848,2.28595479 L15.1861848,4.28595479 C15.1861848,4.83823954 14.7384467,5.28595479 14.1861337,5.28595479 L12.1860314,5.28595479 C11.6337184,5.28595479 11.1859802,4.83823954 11.1859802,4.28595479 C11.1859802,3.86824977 11.4420966,3.51036089 11.8058655,3.3607444 C9.44909455,1.42265663 5.96011501,1.55486679 3.75750982,3.75735931 C2.62183684,4.8929742 2.0059674,6.40331342 2.00010256,7.97748347 C1.99804494,8.52976439 1.54864187,8.97580859 0.996332699,8.97375817 C0.444023531,8.97169356 -0.00204348624,8.52231348 7.04131025e-06,7.97003256 C0.00782612034,5.87323255 0.830458842,3.85583345 2.34322392,2.34314575 C5.33267006,-0.646147474 10.0993182,-0.775223623 13.2422416,1.95591731 C13.3781917,1.56579015 13.7494815,1.28595479 14.1861337,1.28595479 C14.7384467,1.28595479 15.1861848,1.73367004 15.1861848,2.28595479 Z" id="icon_shuaxin_rest"></path>
                </g>
            </g>
        </g>
    </g>
</svg>