<?xml version="1.0" encoding="UTF-8"?>
<svg width="161px" height="100px" viewBox="0 0 161 100" version="1.1" xmlns="http://www.w3.org/2000/svg" xmlns:xlink="http://www.w3.org/1999/xlink">
    <title>pic_wuneirong_big</title>
    <g id="页面-1" stroke="none" stroke-width="1" fill="none" fill-rule="evenodd">
        <g id="上课-缺省页" transform="translate(-880.000000, -506.000000)">
            <g id="bg" transform="translate(0.000000, 48.000000)">
                <g id="pic_wuneirong_big" transform="translate(880.000000, 458.000000)">
                    <g id="pic_wuneirong" transform="translate(32.750682, 4.237026)">
                        <ellipse id="椭圆形" fill="#D4D6D9" cx="48.0000913" cy="47.8814868" rx="48.0000913" ry="47.8814868"></ellipse>
                        <path d="M54.8152783,26.3348177 C55.7084235,26.3348177 56.5648171,26.6895378 57.1952717,27.3206162 L57.1952717,27.3206162 L68.6201194,38.7567674 C69.247728,39.3849969 69.6001324,40.2357566 69.6001324,41.122673 L69.6001324,41.122673 L69.6001324,64.6400071 C69.6001324,67.2844286 67.4510951,69.4281558 64.8001232,69.4281558 L64.8001232,69.4281558 L36.0000685,69.4281558 C33.3490966,69.4281558 31.2000593,67.2844286 31.2000593,64.6400071 L31.2000593,64.6400071 L31.2000593,31.1229664 C31.2000593,28.4785449 33.3490966,26.3348177 36.0000685,26.3348177 L36.0000685,26.3348177 Z M52.7870909,45.4874124 C51.4648801,45.4874124 50.3930165,44.4155488 50.3930165,43.0933381 C50.3930165,43.0314022 50.3953685,42.9700157 50.3999879,42.9092629 L50.4000593,31.1228177 L36.0000685,31.1229664 L36.0000685,64.6400071 L64.8001232,64.6400071 L64.8000593,45.4868177 L52.7870909,45.4874124 Z M55.2000593,32.1078177 L55.2000593,40.6988177 L63.7860593,40.6988177 L55.2000593,32.1078177 Z" id="形状结合" fill="#FFFFFF" fill-rule="nonzero"></path>
                    </g>
                    <g id="编组-8" opacity="0.800000012" fill="#D4D6D9">
                        <path d="M148.257838,45.1966265 L145.315904,43.5911675 C144.276564,43.0239832 143.89498,41.7237831 144.463612,40.6870893 C144.660469,40.3281922 144.956351,40.033109 145.316195,39.8368086 L148.256391,38.2328857 C148.616422,38.0364829 148.912422,37.7411964 149.109276,37.3820542 L150.716601,34.4496394 C151.284928,33.4127792 152.588335,33.031785 153.627842,33.5986651 C153.987892,33.7950126 154.283926,34.0902475 154.48083,34.4493496 L156.089695,37.3834974 C156.286496,37.7424121 156.582327,38.0375302 156.94213,38.2338806 L159.884064,39.8393397 C160.923404,40.406524 161.304989,41.7067241 160.736356,42.7434179 C160.539499,43.102315 160.243617,43.3973982 159.883773,43.5936986 L156.943577,45.1976215 C156.583546,45.3940243 156.287546,45.6893108 156.090692,46.048453 L154.483367,48.9808678 C153.91504,50.017728 152.611633,50.3987222 151.572126,49.8318421 C151.212077,49.6354945 150.916042,49.3402597 150.719138,48.9811576 L149.110273,46.0470098 C148.913472,45.6880951 148.617641,45.392977 148.257838,45.1966265 Z" id="星形" opacity="0.5"></path>
                        <path d="M24.896557,12.9861905 L22.8696688,13.5818787 C21.9664409,13.8473311 21.0190384,13.3303119 20.753586,12.427084 C20.6613642,12.1132902 20.6613642,11.7795899 20.753586,11.4657961 L21.3492742,9.43890767 C21.5354039,8.80558296 21.5360242,8.13216705 21.3510615,7.49850053 L20.7601405,5.47405549 C20.4955083,4.56744779 21.0159322,3.6179702 21.9225399,3.35333792 C22.2354504,3.26200159 22.5679476,3.26200159 22.8808581,3.35333792 L24.905303,3.9442588 C25.5389695,4.12922151 26.2123854,4.12860123 26.8457102,3.94247152 L28.8725984,3.34678324 C29.7758263,3.08133089 30.7232288,3.59835009 30.9886811,4.50157797 C31.0809029,4.81537177 31.0809029,5.14907213 30.9886811,5.46286593 L30.3929929,7.48975432 C30.2068632,8.12307903 30.206243,8.79649494 30.3912057,9.43016146 L30.9821266,11.4546065 C31.2467589,12.3612142 30.726335,13.3106918 29.8197273,13.5753241 C29.5068168,13.6666604 29.1743196,13.6666604 28.8614091,13.5753241 L26.8369642,12.9844032 C26.2032976,12.7994405 25.5298817,12.8000608 24.896557,12.9861905 Z" id="星形" opacity="0.400000006" transform="translate(25.871134, 8.464331) rotate(-315.000000) translate(-25.871134, -8.464331) "></path>
                        <ellipse id="椭圆形" opacity="0.300000012" cx="129.600246" cy="90.532949" rx="3.60000685" ry="3.59111151"></ellipse>
                        <ellipse id="椭圆形" opacity="0.5" cx="8.40001598" cy="76.168503" rx="8.40001598" ry="8.37926018"></ellipse>
                    </g>
                </g>
            </g>
        </g>
    </g>
</svg>