<?xml version="1.0" encoding="UTF-8"?>
<svg width="131px" height="131px" viewBox="0 0 131 131" version="1.1" xmlns="http://www.w3.org/2000/svg" xmlns:xlink="http://www.w3.org/1999/xlink">
    <title>pic_xiaojianjian</title>
    <defs>
        <linearGradient x1="51.1491123%" y1="9.23576113%" x2="50%" y2="71.7026932%" id="linearGradient-1">
            <stop stop-color="#4B71EE" offset="0%"></stop>
            <stop stop-color="#6392FF" offset="100%"></stop>
        </linearGradient>
        <circle id="path-2" cx="74.3407059" cy="73.6184421" r="60"></circle>
        <path d="M38.9377986,81.669299 C66.2023558,81.669299 79.119991,70.7820969 77.8716634,57.2291319 C77.5562286,53.8044894 76.0665276,48.9205222 75.8387151,43.3950492 C74.3914719,15.7775974 74.3092909,4.26325641e-14 38.9377986,4.26325641e-14 C3.56630639,4.26325641e-14 3.22062082,18.0893625 2.04723471,43.303739 C1.78840917,48.8655267 0.0632694533,53.7742388 0.00393390085,57.2291319 C-0.248885154,71.9498647 11.6732415,81.669299 38.9377986,81.669299 Z" id="path-4"></path>
        <path d="M6.91338021,0.202131739 C11.0513865,1.30521667 10.9587918,4.43158251 10.0719529,8.30158173 C9.18511403,12.1715809 8.26664342,15.3180761 3.70074599,14.2167165 C-0.52870478,13.1987497 -0.345240706,9.98726574 0.542173292,6.11726652 C1.42958729,2.2472673 3.03417903,-0.831938493 6.91338021,0.202131739 Z" id="path-6"></path>
        <path d="M9.09054487,10.0368528 C7.94478382,11.6329984 7.63406895,13.0516892 8.15840024,14.2929251 C8.94489718,16.1547789 11.3336164,17.9984645 10.8065512,21.2498555 C10.4551744,23.4174496 9.70634519,25.0496949 8.5600636,26.1465915 C8.4984705,22.8821009 7.30363695,20.7141083 4.97556295,19.6426138 C1.48345195,18.0353721 -1.71985515,13.5037361 1.04854859,6.94954704 C2.82696023,2.73916187 7.86113156,0.936917309 11.4782639,0.166219342 C11.566626,0.147502823 10.7707197,3.43771397 9.09054487,10.0368528 Z" id="path-8"></path>
        <path d="M23.5838836,0.063758786 C27.3590593,-0.198567858 31.2619999,1.08760455 35.2927056,3.922276 C41.3387641,8.17428319 43.1813452,17.65257 39.088203,24.014288 C34.9950609,30.376006 28.483645,29.4345907 23.9197389,33.3360526 C20.8771349,35.9370272 19.4706297,37.9478028 19.7002235,39.3683796 C16.2685474,35.7360922 15.607347,32.1672108 17.7166225,28.6617355 C20.8805356,23.4035225 29.2609603,24.7863961 29.2609603,17.2262431 C29.2609603,12.1861411 27.7614545,7.94478665 24.762443,4.50217964 L23.5838836,0.063758786 Z" id="path-10"></path>
        <path d="M0.897257349,36.5761301 L8.36180653,6.94818635 C8.60225249,5.99381938 9.57083974,5.41507205 10.5252067,5.65551801 C11.1496812,5.81284989 11.6406874,6.29486386 11.8095337,6.91632392 L19.7376552,36.096775 L19.7376552,36.096775 C20.8347209,40.9435232 17.8543112,43.3493598 10.7964264,43.3142849 C3.73854149,43.2786987 0.438818482,41.0326471 0.897257349,36.5761301 Z" id="path-12"></path>
    </defs>
    <g id="页面-1" stroke="none" stroke-width="1" fill="none" fill-rule="evenodd">
        <g id="主页备份" transform="translate(-753.000000, -475.000000)">
            <g id="编组-16" transform="translate(722.000000, 414.000000)">
                <g id="编组-7" transform="translate(17.000000, 49.000000)">
                    <g id="编组-39" transform="translate(74.500000, 74.000000) rotate(-5.000000) translate(-74.500000, -74.000000) translate(6.000000, 6.000000)">
                        <mask id="mask-3" fill="white">
                            <use xlink:href="#path-2"></use>
                        </mask>
                        <use id="蒙版" fill="url(#linearGradient-1)" transform="translate(74.340706, 73.618442) rotate(-2.000000) translate(-74.340706, -73.618442) " xlink:href="#path-2"></use>
                        <g mask="url(#mask-3)" id="pic_ip">
                            <g transform="translate(72.682432, 146.731856) rotate(-347.000000) translate(-72.682432, -146.731856) translate(5.182432, 82.231856)">
                                <g transform="translate(67.712050, 64.399807) rotate(-15.000000) translate(-67.712050, -64.399807) translate(12.212050, 12.899807)">
                                    <g id="左手" transform="translate(25.564012, 24.823801) rotate(8.000000) translate(-25.564012, -24.823801) translate(3.564012, 3.823801)" fill="#FCFDFF">
                                        <g id="编组-12" transform="translate(21.761775, 20.654230) rotate(-285.000000) translate(-21.761775, -20.654230) translate(5.261775, 2.654230)">
                                            <rect id="矩形" transform="translate(21.256280, 12.190086) rotate(40.000000) translate(-21.256280, -12.190086) " x="16.3661668" y="0.396284761" width="9.78022564" height="23.587603" rx="4.89011282"></rect>
                                            <rect id="矩形" transform="translate(13.309201, 21.619583) rotate(40.000000) translate(-13.309201, -21.619583) " x="8.41908848" y="12.1270107" width="9.78022564" height="18.9851439" rx="4.89011282"></rect>
                                            <circle id="椭圆形" cx="7.14428279" cy="28.757787" r="7.07719409"></circle>
                                        </g>
                                    </g>
                                    <g id="右手" transform="translate(93.650698, 47.297695) scale(-1, 1) rotate(8.000000) translate(-93.650698, -47.297695) translate(78.650698, 30.297695)">
                                        <g id="编组-12" transform="translate(0.000483, 0.018920)">
                                            <rect id="矩形" fill="#FCFDFF" transform="translate(18.235351, 12.209301) rotate(40.000000) translate(-18.235351, -12.209301) " x="13.3452386" y="0.415499782" width="9.78022564" height="23.587603" rx="4.89011282"></rect>
                                            <rect id="矩形" fill="#FCFDFF" transform="translate(10.288273, 21.638798) rotate(40.000000) translate(-10.288273, -21.638798) " x="5.39816025" y="12.1462257" width="9.78022564" height="18.9851439" rx="4.89011282"></rect>
                                            <rect id="矩形" fill="#FCFDFF" transform="translate(3.407007, 21.920235) rotate(82.000000) translate(-3.407007, -21.920235) " x="1.68108511" y="18.7560447" width="3.45184434" height="6.3283813" rx="1.72592217"></rect>
                                            <g id="编组-11" transform="translate(0.000000, 19.740440)"></g>
                                        </g>
                                    </g>
                                    <g id="衣服" transform="translate(21.748913, 17.048169)">
                                        <path d="M28.475151,20.2740606 C26.4556791,24.2374973 21.6055735,25.8133921 17.6421368,23.7939203 L4.82707084,17.264318 C2.56224988,16.1103341 1.66173853,13.3388452 2.81572245,11.0740242 L5.94993153,4.92279254 C7.10391545,2.65797158 9.87540439,1.75746023 12.1402254,2.91144415 L24.9552913,9.44104639 C28.918728,11.4605182 30.4946228,16.3106239 28.475151,20.2740606 Z" id="矩形" fill="#4363E4" transform="translate(16.428989, 14.136234) rotate(3.000000) translate(-16.428989, -14.136234) "></path>
                                        <path d="M61.8222012,7.0631077 C66.2704702,7.0631077 69.8765047,10.6691422 69.8765047,15.1174112 L69.8765047,29.5000959 C69.8765047,32.0419639 67.8159135,34.1025551 65.2740455,34.1025551 L58.3703568,34.1025551 C55.8284889,34.1025551 53.7678977,32.0419639 53.7678977,29.5000959 L53.7678977,15.1174112 C53.7678977,10.6691422 57.3739322,7.0631077 61.8222012,7.0631077 Z" id="矩形" fill="#4363E4" transform="translate(61.822201, 20.582831) scale(-1, 1) rotate(-315.000000) translate(-61.822201, -20.582831) "></path>
                                        <path d="M69.3730032,42.7964742 C69.0995874,37.9862746 68.8815722,34.0297396 68.7189577,30.926869 C68.1658488,20.3729234 62.1471479,2.75180569 39.0111502,3.96431195 C15.8751525,5.17681821 11.7339162,23.3798599 12.287025,33.9338055 L12.3359569,34.8532269 C12.4215374,36.4107168 12.7075006,40.0398742 13.1938465,45.740699 C22.6302077,45.3956647 32.0909105,44.9618035 41.5759549,44.4391152 C51.0609993,43.9164269 60.326682,43.3688799 69.3730032,42.7964742 Z" id="椭圆形" fill="#4363E4" transform="translate(40.806870, 24.822786) rotate(3.000000) translate(-40.806870, -24.822786) "></path>
                                        <path d="M24.0332643,5.33718553 L25.2223608,5.33718553 C26.8034943,5.33718553 28.0882216,6.61331939 28.098833,8.1944173 L28.3422139,44.4581723 C28.3559817,46.5095795 26.7041486,48.1837346 24.6527414,48.1975025 C24.6444319,48.1975582 24.6361223,48.1975861 24.6278126,48.1975861 C22.5763592,48.1975861 20.9133276,46.5345546 20.9133276,44.4831012 C20.9133276,44.4747915 20.9133555,44.4664818 20.9134113,44.4581723 L21.1567922,8.1944173 C21.1674036,6.61331939 22.4521308,5.33718553 24.0332643,5.33718553 Z" id="矩形" fill="#253A84"></path>
                                        <path d="M55.3875171,5.33718553 L56.5766136,5.33718553 C58.1577471,5.33718553 59.4424743,6.61331939 59.4530857,8.1944173 L59.6964666,44.4581723 C59.7102345,46.5095795 58.0584014,48.1837346 56.0069942,48.1975025 C55.9986847,48.1975582 55.990375,48.1975861 55.9820653,48.1975861 C53.930612,48.1975861 52.2675804,46.5345546 52.2675804,44.4831012 C52.2675804,44.4747915 52.2676083,44.4664818 52.267664,44.4581723 L52.511045,8.1944173 C52.5216563,6.61331939 53.8063836,5.33718553 55.3875171,5.33718553 Z" id="矩形" fill="#253A84"></path>
                                        <path d="M47.7268112,12.8161816 L47.3988087,17.8900965 L42.8648144,16.7506996 C42.4628135,17.8545918 41.4040198,18.6428773 40.1611121,18.6428773 C38.9258203,18.6428773 37.8723931,17.8642226 37.4648734,16.7709561 L33.0101185,17.8900965 L32.682116,12.8161816 L37.5380267,14.5839841 C37.9890106,13.5850299 38.9938719,12.8898034 40.1611121,12.8898034 C41.3389173,12.8898034 42.3513909,13.5976722 42.796307,14.611184 L47.7268112,12.8161816 Z" id="形状结合" fill="#F5EE8B"></path>
                                    </g>
                                </g>
                            </g>
                        </g>
                        <g id="head" transform="translate(75.032499, 62.799116) rotate(-3.000000) translate(-75.032499, -62.799116) translate(36.032499, 2.299116)">
                            <path d="M43.7233617,97.3839334 C45.1531624,97.3839334 46.3122449,98.5430159 46.3122449,99.9728167 L46.3122449,114.643155 C46.3122449,114.800252 46.2912561,114.952447 46.2519295,115.097088 C45.7883923,117.923858 42.7080299,120.108575 38.9770757,120.108575 C35.2456817,120.108575 32.165033,117.923343 31.7020306,115.095545 C31.6627976,114.951737 31.6419065,114.799886 31.6419065,114.643155 L31.6419065,99.9728167 C31.6419065,98.5430159 32.800989,97.3839334 34.2307897,97.3839334 L43.7233617,97.3839334 Z" id="形状结合" fill="#FBDAD7"></path>
                            <g id="脸" transform="translate(0.000000, 0.000000)">
                                <g transform="translate(0.000000, 33.631592)">
                                    <mask id="mask-5" fill="white">
                                        <use xlink:href="#path-4"></use>
                                    </mask>
                                    <use id="蒙版" fill="#FCFDFF" xlink:href="#path-4"></use>
                                    <path d="M39.0078264,81.5901874 C60.2660416,81.5901874 76.8013092,73.875758 76.8013092,63.8940517 C76.8013092,53.9123454 63.3220194,47.3593976 39.175819,47.3593976 C15.0296186,47.3593976 1.21434353,54.2933039 1.21434353,64.4747925 C1.21434353,74.6562811 17.7496111,81.5901874 39.0078264,81.5901874 Z" id="椭圆形" fill="#FFEEEC" mask="url(#mask-5)"></path>
                                </g>
                                <path d="M35.7464369,84.5949698 C36.6551649,84.5949698 37.3918345,85.3316394 37.3918345,86.2403673 C37.3918345,87.1490953 36.6551649,87.8857649 35.7464369,87.8857649 C34.837709,87.8857649 34.1010394,87.1490953 34.1010394,86.2403673 C34.1010394,85.3316394 34.837709,84.5949698 35.7464369,84.5949698 Z M41.7766215,84.5949698 C42.6853494,84.5949698 43.422019,85.3316394 43.422019,86.2403673 C43.422019,87.1490953 42.6853494,87.8857649 41.7766215,87.8857649 C40.8678935,87.8857649 40.1312239,87.1490953 40.1312239,86.2403673 C40.1312239,85.3316394 40.8678935,84.5949698 41.7766215,84.5949698 Z" id="鼻子" fill="#F4CFCE"></path>
                                <g id="嘴" transform="translate(39.832825, 100.594302) rotate(-6.000000) translate(-39.832825, -100.594302) translate(27.832825, 92.094302)">
                                    <g id="形状_1941" transform="translate(11.469120, 8.764352) rotate(-8.000000) translate(-11.469120, -8.764352) translate(5.969120, 1.264352)">
                                        <mask id="mask-7" fill="white">
                                            <use xlink:href="#path-6"></use>
                                        </mask>
                                        <use id="蒙版" fill="#EF695F" xlink:href="#path-6"></use>
                                        <path d="M-0.443586652,10.3927271 C-0.443586652,10.3927271 1.34037804,6.28806763 5.34311153,7.28606118 C9.34584502,8.28405472 9.90861812,12.693217 9.90861812,12.693217 C9.90861812,12.693217 6.51539545,17.7583208 0.706658323,13.843462 C-5.1020788,9.92860325 -0.443586652,10.3927271 -0.443586652,10.3927271 Z" fill="#FF927F" mask="url(#mask-7)" transform="translate(3.848757, 11.228930) rotate(10.000000) translate(-3.848757, -11.228930) "></path>
                                    </g>
                                </g>
                                <g id="红晕" transform="translate(10.951429, 78.501979)" fill="#FFD3D3">
                                    <rect id="矩形" transform="translate(6.177650, 4.830999) rotate(-290.000000) translate(-6.177650, -4.830999) " x="3.00438304" y="-0.57530739" width="6.34653339" height="10.8126124" rx="3.1732667"></rect>
                                    <rect id="矩形" transform="translate(49.901011, 4.830999) scale(-1, 1) rotate(-290.000000) translate(-49.901011, -4.830999) " x="46.7277447" y="-0.57530739" width="6.34653339" height="10.8126124" rx="3.1732667"></rect>
                                </g>
                                <g id="eye" transform="translate(44.808391, 61.887507)">
                                    <circle id="形状结合" fill="#79A8C0" opacity="0.745233445" cx="8.55805595" cy="8.47079547" r="8.46204453"></circle>
                                    <circle id="椭圆形" fill="#FEFEFE" cx="8.32935885" cy="10.0167459" r="7.72975221"></circle>
                                    <circle id="椭圆形" fill="#310F06" cx="8.73618792" cy="9.60991685" r="5.37014364"></circle>
                                    <circle id="椭圆形" fill="#FEFEFE" cx="11.8372449" cy="13.6997431" r="1.13912138"></circle>
                                    <circle id="椭圆形" fill="#FEFEFE" cx="6.04103272" cy="6.41748651" r="2.7418496"></circle>
                                    <circle id="椭圆形" fill="#935A33" cx="12.3162837" cy="8.95899035" r="1"></circle>
                                </g>
                                <g id="eye" transform="translate(22.991820, 71.099854) scale(-1, 1) translate(-22.991820, -71.099854) translate(13.991820, 61.599854)">
                                    <circle id="形状结合" fill="#79A8C0" opacity="0.745233445" cx="8.62796697" cy="8.63927057" r="8.62796697"></circle>
                                    <circle id="椭圆形" fill="#FEFEFE" cx="8.3790833" cy="10.2155338" r="7.88131598"></circle>
                                    <g id="编组-6" transform="translate(8.879945, 9.655482) scale(-1, 1) translate(-8.879945, -9.655482) translate(3.379945, 3.655482)">
                                        <circle id="椭圆形" fill="#310F06" cx="5.47544058" cy="6.14524518" r="5.47544058"></circle>
                                        <circle id="椭圆形" fill="#FEFEFE" cx="8.55099198" cy="10.3152641" r="1.16145709"></circle>
                                        <circle id="椭圆形" fill="#FEFEFE" cx="2.79561136" cy="2.89021816" r="2.79561136"></circle>
                                        <circle id="椭圆形" fill="#935A33" cx="9.12573429" cy="5.48155541" r="1"></circle>
                                    </g>
                                </g>
                                <g id="头发" transform="translate(18.728745, 26.038122)">
                                    <mask id="mask-9" fill="white">
                                        <use xlink:href="#path-8"></use>
                                    </mask>
                                    <use id="蒙版" fill="#70CEFF" xlink:href="#path-8"></use>
                                    <path d="M26.6362072,6.98092582 C27.1173284,9.00576809 27.3871677,11.0356625 27.4457252,13.0706092 C27.4896638,14.5975293 26.5286489,16.2112048 24.4490328,17.3947202 C22.3713512,18.5771347 19.570275,18.1558246 17.9420503,21.0855241 C16.4849325,23.7073473 16.1905236,26.6118201 17.0588237,29.7989426 C18.1694851,27.6275252 20.1427176,25.912778 22.9785211,24.6547009 C25.3488867,23.6031109 29.8395124,22.2335212 29.6358782,16.2662077 C29.5168661,12.7786672 28.5169758,9.68357324 26.6362072,6.98092582 Z" id="路径-29" fill="#78CFFF"></path>
                                    <mask id="mask-11" fill="white">
                                        <use xlink:href="#path-10"></use>
                                    </mask>
                                    <use id="蒙版" fill="#70C6FC" xlink:href="#path-10"></use>
                                    <path d="M24.762443,1.25883458 C32.0035934,2.99907903 35.8961404,7.15728815 36.4400839,13.7334619 C37.2559992,23.5977226 28.9196334,25.3218432 23.7874547,29.2697757 C20.3660022,31.9017306 19.0035918,35.267932 19.7002235,39.3683796 C16.1813622,35.6945991 15.4114901,32.2180584 17.3906072,28.9387577 C19.198999,25.9423403 21.9408328,24.846241 24.762443,23.5835051 L24.9625301,23.4923944 C27.4961553,22.3179102 28.7200823,20.9240252 29.2609603,17.2262431 C29.6578262,14.513018 28.6877595,11.0979122 26.3507603,6.98092582 L24.762443,1.25883458 Z M11.3525383,2.83418007 L11.2859089,3.23203347 C10.6171993,7.16502113 9.87601382,9.73162064 9.06235241,10.931832 C7.80117723,12.7921596 11.7542826,18.3899342 11.3525383,22.1621149 C11.0847088,24.6769021 9.98593299,26.0704857 8.05621099,26.3428658 C9.56088247,25.5790241 10.1166954,23.6675209 9.72364964,20.6083564 C9.13408105,16.0196095 3.497462,15.217956 4.97797673,9.47295777 C5.96498656,5.64295894 8.08984041,3.43003304 11.3525383,2.83418007 Z" id="形状" fill="#DDF4FF"></path>
                                </g>
                                <g id="耳朵" transform="translate(2.742265, 24.635037)">
                                    <path d="M3.44736342,24.6420304 C1.73849158,22.3604421 0.695866781,19.8212376 0.319489019,17.024417 C-0.245077625,12.8291861 0.226796502,4.76442522 3.44736342,1.51437835 C6.66793033,-1.73566852 8.24380661,0.725620723 9.90994777,4.47285727 C11.0207086,6.97101497 13.0336591,9.60837529 15.9487993,12.3849382 C15.8837125,14.2251254 14.4539225,16.6877725 11.6594292,19.7728793 C8.864936,22.8579861 6.12758072,24.4810364 3.44736342,24.6420304 Z" id="路径-3" fill="#FCFDFF"></path>
                                    <path d="M8.4990268,16.7383786 C9.83578631,15.8154652 11.0122918,15.2179253 12.0285434,14.9457587 C10.0305316,12.1594153 8.91612101,9.86838767 8.68531153,8.07267573 C8.33909731,5.37910781 5.03784764,10.4613332 4.60627309,14.5153234 C4.31855672,17.2179835 4.45260767,18.8722048 5.00842594,19.4779872 C5.92613082,18.6246207 7.08966444,17.7114178 8.4990268,16.7383786 Z" id="蒙版" fill="#F7CCBE" transform="translate(8.243807, 13.398333) rotate(-14.000000) translate(-8.243807, -13.398333) "></path>
                                </g>
                                <g id="耳朵" transform="translate(67.348010, 37.135037) scale(-1, 1) translate(-67.348010, -37.135037) translate(59.348010, 24.635037)">
                                    <path d="M3.44736342,24.6420304 C1.73849158,22.3604421 0.695866781,19.8212376 0.319489019,17.024417 C-0.245077625,12.8291861 0.226796502,4.76442522 3.44736342,1.51437835 C6.66793033,-1.73566852 8.24380661,0.725620723 9.90994777,4.47285727 C11.0207086,6.97101497 13.0336591,9.60837529 15.9487993,12.3849382 C15.8837125,14.2251254 14.4539225,16.6877725 11.6594292,19.7728793 C8.864936,22.8579861 6.12758072,24.4810364 3.44736342,24.6420304 Z" id="路径-3" fill="#FCFDFF"></path>
                                    <path d="M8.4990268,16.7383786 C9.83578631,15.8154652 11.0122918,15.2179253 12.0285434,14.9457587 C10.0305316,12.1594153 8.91612101,9.86838767 8.68531153,8.07267573 C8.33909731,5.37910781 5.03784764,10.4613332 4.60627309,14.5153234 C4.31855672,17.2179835 4.45260767,18.8722048 5.00842594,19.4779872 C5.92613082,18.6246207 7.08966444,17.7114178 8.4990268,16.7383786 Z" id="蒙版" fill="#F7CCBE" transform="translate(8.243807, 13.398333) rotate(-14.000000) translate(-8.243807, -13.398333) "></path>
                                </g>
                                <g id="角" transform="translate(37.359789, 22.421693) rotate(2.000000) translate(-37.359789, -22.421693) translate(26.859789, 0.421693)">
                                    <mask id="mask-13" fill="white">
                                        <use xlink:href="#path-12"></use>
                                    </mask>
                                    <use id="蒙版" fill="#F5C436" transform="translate(10.407174, 21.830865) rotate(-362.000000) translate(-10.407174, -21.830865) " xlink:href="#path-12"></use>
                                    <path d="M10.3064159,7.02909531 C10.8478319,6.92955432 11.5180211,7.45568308 11.8101837,8.39683903 L20.1540003,35.7799749 C20.7167976,37.6012447 19.7806627,39.0865382 18.1817864,39.3804964 C16.5829102,39.6744547 14.6729304,38.7752895 14.3231972,36.89849 L9.63860131,8.79609108 C9.46293859,7.83351628 9.76499994,7.12863629 10.3064159,7.02909531 Z" id="矩形" fill="#FFFFFF" opacity="0.207124256"></path>
                                </g>
                            </g>
                        </g>
                        <g id="左手" transform="translate(23.410390, 98.060159) rotate(6.000000) translate(-23.410390, -98.060159) translate(3.410390, 69.560159)">
                            <g id="编组-12" transform="translate(19.879332, 28.387843) rotate(-285.000000) translate(-19.879332, -28.387843) translate(-5.120668, 14.887843)">
                                <circle id="椭圆形" fill="#FCFDFF" cx="40.0579248" cy="9.26391964" r="7.07719409"></circle>
                                <path d="M15.10462,-9.66276875 C15.6128321,-9.87065466 16.1944497,-9.63937318 16.4211237,-9.13925829 L35.7886897,33.5917467 C36.2447902,34.5980494 35.7987632,35.7835614 34.7924606,36.2396619 C34.7868303,36.2422138 34.7811882,36.2447396 34.7755344,36.2472392 C33.787946,36.6838676 32.6333902,36.2372263 32.1967617,35.2496379 C32.1882794,35.2304521 32.1801064,35.2111311 32.1722458,35.1916822 L14.5627811,-8.37836841 C14.3589637,-8.88266176 14.6011862,-9.45683738 15.10462,-9.66276875 Z" id="路径-155" fill="#9D5833" transform="translate(25.408207, 13.514253) rotate(-85.000000) translate(-25.408207, -13.514253) "></path>
                                <path d="M36.1393035,4.78960988 C37.5858236,5.37430712 36.9853894,5.65807263 37.5954908,6.19180878 C37.9379179,6.49137493 38.2449515,6.79427129 38.5165916,7.10049784 C39.0708902,7.72537206 39.0888708,8.69400687 38.5581918,9.34154078 L38.362258,9.58061906 C37.7927843,10.2754902 37.1274037,12.1149144 36.5285631,10.6451275 C35.9297225,9.1753407 34.7021292,8.26156117 34.1933045,7.83922837 C33.422987,7.19985223 32.6520313,6.05725679 33.4506373,4.97825708 C34.1545858,4.02714957 35.8843319,4.68654791 36.1393035,4.78960988 Z" id="矩形" fill="#FFFFFF" transform="translate(36.028920, 7.835409) rotate(-101.000000) translate(-36.028920, -7.835409) "></path>
                            </g>
                        </g>
                        <g id="编组-34" transform="translate(75.285065, 73.864280) rotate(15.000000) translate(-75.285065, -73.864280) translate(43.785065, 53.864280)">
                            <circle id="椭圆形" stroke="#2D4D86" stroke-width="3.10045156" cx="15.0035492" cy="25.0619835" r="14.468774"></circle>
                            <circle id="椭圆形" stroke="#2D4D86" stroke-width="3.10045156" cx="47.8166616" cy="14.468774" r="14.468774"></circle>
                            <path d="M28.4388393,20.3753988 C28.8318425,19.2712591 29.5749289,18.5097418 30.6680985,18.0908472 C31.7612681,17.6719525 32.9130964,17.7529789 34.1235834,18.3339265" id="路径-154" stroke="#2D4D86" stroke-width="3.10045156"></path>
                            <path d="M3.85701345,15.4875415 C4.02312687,15.6225233 4.04836399,15.8666093 3.91338213,16.0327227 C2.06156398,18.3116352 1.0176495,20.6735933 0.773227583,23.1237136 C0.751980446,23.336698 0.562098317,23.4921317 0.349113977,23.4708845 C0.136129637,23.4496374 -0.0193040775,23.2597553 0.00194305906,23.0467709 C0.262151083,20.4384084 1.36825117,17.9357493 3.31183222,15.5439101 C3.44681408,15.3777967 3.69090003,15.3525596 3.85701345,15.4875415 Z M4.41033965,14.5979594 C4.62438117,14.5979594 4.7978961,14.7714744 4.7978961,14.9855159 C4.7978961,15.1995574 4.62438117,15.3730723 4.41033965,15.3730723 C4.19629814,15.3730723 4.02278321,15.1995574 4.02278321,14.9855159 C4.02278321,14.7714744 4.19629814,14.5979594 4.41033965,14.5979594 Z" id="形状结合" fill="#FFFFFF" fill-rule="nonzero" opacity="0.400000006"></path>
                            <path d="M36.6881591,4.76514646 C36.8542725,4.90012832 36.8795096,5.14421427 36.7445278,5.31032769 C34.8927096,7.5892402 33.8487952,9.95119832 33.6043732,12.4013186 C33.5831261,12.614303 33.393244,12.7697367 33.1802596,12.7484895 C32.9672753,12.7272424 32.8118416,12.5373603 32.8330887,12.3243759 C33.0932967,9.71601342 34.1993968,7.2133543 36.1429779,4.82151514 C36.2779597,4.65540172 36.5220457,4.63016461 36.6881591,4.76514646 Z M37.2414853,3.87556446 C37.4555268,3.87556446 37.6290418,4.04907939 37.6290418,4.2631209 C37.6290418,4.47716242 37.4555268,4.65067735 37.2414853,4.65067735 C37.0274438,4.65067735 36.8539289,4.47716242 36.8539289,4.2631209 C36.8539289,4.04907939 37.0274438,3.87556446 37.2414853,3.87556446 Z" id="形状结合" fill="#FFFFFF" fill-rule="nonzero" opacity="0.400000006"></path>
                        </g>
                    </g>
                </g>
            </g>
        </g>
    </g>
</svg>