<?xml version="1.0" encoding="UTF-8"?>
<svg width="28px" height="28px" viewBox="0 0 28 28" version="1.1" xmlns="http://www.w3.org/2000/svg" xmlns:xlink="http://www.w3.org/1999/xlink">
    <title>icon_timu_big</title>
    <g id="页面-1" stroke="none" stroke-width="1" fill="none" fill-rule="evenodd">
        <g id="上课-数智课堂+智课助手展开" transform="translate(-1832.000000, -802.000000)">
            <g id="矩形" transform="translate(1412.000000, 414.000000)">
                <g id="编组-6备份-3" transform="translate(408.000000, 376.000000)">
                    <g id="icon_timu_big" transform="translate(12.000000, 12.000000)">
                        <rect id="矩形" fill="#4B71EE" x="0" y="0" width="28" height="28" rx="4"></rect>
                        <g id="编组-12" transform="translate(6.720274, 6.719908)" fill="#FFFFFF">
                            <path d="M12.8885304,2.4341379 L11.0050526,0.55066014 C10.2709053,-0.183487198 9.08162763,-0.18327552 8.34872375,0.549628357 L0.312121128,8.55625096 C0.112718372,8.75453267 0.000597243075,9.02418114 0.000547150152,9.30562007 L1.71379071e-08,12.3795977 C-0.000104189561,12.9650661 0.475052145,13.4402224 1.0605205,13.4401182 L4.13449817,13.4395711 C4.41593709,13.439521 4.68558557,13.3273999 4.88387318,13.128003 L12.8917097,5.08831297 C13.622466,4.35756286 13.6226777,3.16828524 12.8885304,2.4341379 Z" id="蒙版" fill-rule="nonzero"></path>
                            <path d="M13.5997256,11.4240922 C14.1299189,11.4240922 14.5597256,11.8538989 14.5597256,12.3840922 L14.5597256,12.4800922 C14.5597256,13.0102856 14.1299189,13.4400922 13.5997256,13.4400922 L9.35972557,13.4400922 C8.82953221,13.4400922 8.39972557,13.0102856 8.39972557,12.4800922 L8.39972557,12.3840922 C8.39972557,11.8538989 8.82953221,11.4240922 9.35972557,11.4240922 L13.5997256,11.4240922 Z M13.5997256,8.40009225 C14.1299189,8.40009225 14.5597256,8.82989889 14.5597256,9.36009225 L14.5597256,9.45609225 C14.5597256,9.98628561 14.1299189,10.4160922 13.5997256,10.4160922 L11.8237256,10.4160922 C11.2935322,10.4160922 10.8637256,9.98628561 10.8637256,9.45609225 L10.8637256,9.36009225 C10.8637256,8.82989889 11.2935322,8.40009225 11.8237256,8.40009225 L13.5997256,8.40009225 Z" id="形状结合" opacity="0.5"></path>
                        </g>
                    </g>
                </g>
            </g>
        </g>
    </g>
</svg>