<?xml version="1.0" encoding="UTF-8"?>
<svg width="28px" height="28px" viewBox="0 0 28 28" version="1.1" xmlns="http://www.w3.org/2000/svg" xmlns:xlink="http://www.w3.org/1999/xlink">
    <title>icon_chuangkaye_big</title>
    <g id="页面-1" stroke="none" stroke-width="1" fill="none" fill-rule="evenodd">
        <g id="上课-数智课堂+智课助手展开" transform="translate(-1436.000000, -802.000000)">
            <g id="矩形" transform="translate(1412.000000, 414.000000)">
                <g id="编组-6" transform="translate(12.000000, 376.000000)">
                    <g id="icon_chuangkaye_big" transform="translate(12.000000, 12.000000)">
                        <rect id="矩形" fill="#FFFFFF" x="7" y="2" width="19" height="12" rx="2"></rect>
                        <rect id="矩形备份-12" fill="#AFD9FF" x="7" y="4.33333333" width="19" height="12" rx="2"></rect>
                        <path d="M0,2 C8.67738547e-17,0.8954305 0.8954305,4.2495073e-16 2,0 L10.8858878,0 C11.5785213,2.48634883e-15 12.2218473,0.358368683 12.5864181,0.947290771 L16.333,7 L26,7 C27.1045695,7 28,7.8954305 28,9 L28,26 C28,27.1045695 27.1045695,28 26,28 L2,28 C0.8954305,28 3.57315355e-16,27.1045695 0,26 L0,2 Z" id="形状结合" fill="#2B99FF"></path>
                        <path d="M5.66666667,17.5 L18.3333333,17.5 C18.8856181,17.5 19.3333333,17.9477153 19.3333333,18.5 C19.3333333,19.0522847 18.8856181,19.5 18.3333333,19.5 L5.66666667,19.5 C5.11438192,19.5 4.66666667,19.0522847 4.66666667,18.5 C4.66666667,17.9477153 5.11438192,17.5 5.66666667,17.5 Z" id="矩形" fill="#FFFFFF" opacity="0.5"></path>
                        <rect id="矩形" fill="#FFFFFF" x="4.66666667" y="9.16666667" width="8" height="6" rx="1.16666667"></rect>
                        <path d="M5.66666667,21.3333333 L13.1481481,21.3333333 C13.7004329,21.3333333 14.1481481,21.7810486 14.1481481,22.3333333 C14.1481481,22.8856181 13.7004329,23.3333333 13.1481481,23.3333333 L5.66666667,23.3333333 C5.11438192,23.3333333 4.66666667,22.8856181 4.66666667,22.3333333 C4.66666667,21.7810486 5.11438192,21.3333333 5.66666667,21.3333333 Z" id="矩形备份-11" fill="#FFFFFF" opacity="0.5"></path>
                    </g>
                </g>
            </g>
        </g>
    </g>
</svg>