<?xml version="1.0" encoding="UTF-8"?>
<svg width="28px" height="28px" viewBox="0 0 28 28" version="1.1" xmlns="http://www.w3.org/2000/svg" xmlns:xlink="http://www.w3.org/1999/xlink">
    <title>编组 48</title>
    <g id="页面-1" stroke="none" stroke-width="1" fill="none" fill-rule="evenodd">
        <g id="编组-48">
            <rect id="矩形" fill="#6C5CFF" x="0" y="0" width="28" height="28" rx="4"></rect>
            <g id="编组-49" transform="translate(6.500000, 6.500000)" fill="#FFFFFF" fill-rule="nonzero">
                <path d="M7.46139127,12.4748322 C7.24537625,12.4748322 7.02936122,12.4211409 6.83697284,12.3187919 L6.83359761,12.3171141 L6.83022237,12.3154362 L1.76568259,9.56543624 L0.258640257,10.3187919 C0.0257490576,10.4395973 -0.0653822814,10.7248322 0.0544385532,10.954698 C0.0983166053,11.0369128 0.165821301,11.1057047 0.248514553,11.1510067 L7.23693816,14.942953 C7.30613047,14.9798658 7.38376087,15 7.46307889,15 C7.54070929,15 7.61833969,14.9815436 7.68584439,14.942953 L14.7502108,11.1510067 C14.9054716,11.0687919 15.0016658,10.9077181 15,10.7365772 C14.9966029,10.5620805 14.8987211,10.4026846 14.7434603,10.3221477 L13.2313551,9.55704698 L8.09256018,12.3137584 C7.90185941,12.4194631 7.68415677,12.4748322 7.46139127,12.4748322 L7.46139127,12.4748322 Z" id="路径" opacity="0.200000003"></path>
                <path d="M14.9679134,7.2147651 C14.9561001,7.18456376 14.9425992,7.15604027 14.925723,7.12919463 C14.8818449,7.05704698 14.8177155,6.9966443 14.7400851,6.95637584 L13.2279799,6.19127517 L10.0012554,7.92281879 L8.09256018,8.94798658 C7.90185941,9.05369128 7.68415677,9.1090604 7.46139127,9.1090604 C7.24537625,9.1090604 7.02936122,9.05536913 6.83697284,8.95302013 L6.83359761,8.95134228 L6.83022237,8.94966443 L4.98734418,7.94966443 L1.76568259,6.19966443 L0.258640257,6.95469799 C0.0915661358,7.04194631 -0.00294043801,7.21308725 0.00212241416,7.38758389 C0.00212241416,7.39597315 0.00212241416,7.40268456 0.00381003155,7.41107383 C0.00549764894,7.4261745 0.00718526633,7.43959732 0.00887288372,7.45302013 L0.0139357359,7.47818792 C0.0223738228,7.51677852 0.0358747619,7.55369128 0.0544385532,7.58892617 C0.0797528141,7.63590604 0.113505162,7.6795302 0.154007979,7.71644295 L0.189447944,7.7466443 C0.208011736,7.76006711 0.228263144,7.77348993 0.248514553,7.7852349 L2.68037121,9.1057047 L3.29466394,9.43959732 L7.23525054,11.5788591 C7.30444286,11.6157718 7.38207326,11.635906 7.46139127,11.635906 C7.53902167,11.635906 7.61665207,11.6174497 7.68415677,11.5788591 L12.3149789,9.09228188 L13.6650728,8.36744966 L14.7485232,7.7852349 C14.7620241,7.77852349 14.7738374,7.77013423 14.7856507,7.76342282 C14.9189725,7.6761745 14.9999782,7.52852349 14.9983164,7.37080537 C14.9966029,7.31711409 14.9864772,7.26342282 14.9679134,7.2147651 L14.9679134,7.2147651 Z" id="路径" opacity="0.600000024"></path>
                <path d="M0.246826936,4.41946309 L7.23525054,8.2114094 C7.30444286,8.24832215 7.38207326,8.26845638 7.46139127,8.26845638 C7.53902167,8.26845638 7.61665207,8.25 7.68415677,8.2114094 L14.7485232,4.41946309 C14.903784,4.33724832 14.9999782,4.1761745 14.9983124,4.00503356 C14.9949153,3.83053691 14.8970335,3.67114094 14.7417727,3.59060403 L7.74828623,0.0503355705 C7.61496446,-0.0167785235 7.45632842,-0.0167785235 7.32300665,0.0503355705 L0.25695264,3.58724832 C0.0240614402,3.70805369 -0.0670698988,3.99328859 0.0527509358,4.22315436 C0.096628988,4.30536913 0.164133684,4.37416107 0.246826936,4.41946309 Z" id="路径"></path>
            </g>
        </g>
    </g>
</svg>